Coordinates
version=1
nRows=6
nColumns=63
inDegrees=yes

Units are S.I. units (second, meters, Newtons, ...)
If the header above contains a line with 'inDegrees', this indicates whether rotational values are in degrees (yes) or radians (no).

endheader
time	pelvis_tilt	pelvis_list	pelvis_rotation	pelvis_tx	pelvis_ty	pelvis_tz	hip_flexion_r	hip_adduction_r	hip_rotation_r	knee_angle_r	knee_angle_r_beta	ankle_angle_r	subtalar_angle_r	mtp_angle_r	hip_flexion_l	hip_adduction_l	hip_rotation_l	knee_angle_l	knee_angle_l_beta	ankle_angle_l	subtalar_angle_l	mtp_angle_l	L5_S1_Flex_Ext	L5_S1_Lat_Bending	L5_S1_axial_rotation	L4_L5_Flex_Ext	L4_L5_Lat_Bending	L4_L5_axial_rotation	L3_L4_Flex_Ext	L3_L4_Lat_Bending	L3_L4_axial_rotation	L2_L3_Flex_Ext	L2_L3_Lat_Bending	L2_L3_axial_rotation	L1_L2_Flex_Ext	L1_L2_Lat_Bending	L1_L2_axial_rotation	L1_T12_Flex_Ext	L1_T12_Lat_Bending	L1_T12_axial_rotation	Abs_r3	Abs_r2	Abs_r1	Abs_t1	Abs_t2	neck_flexion	neck_bending	neck_rotation	arm_flex_r	arm_add_r	arm_rot_r	elbow_flex_r	pro_sup_r	wrist_flex_r	wrist_dev_r	arm_flex_l	arm_add_l	arm_rot_l	elbow_flex_l	pro_sup_l	wrist_flex_l	wrist_dev_l
      0.00000000	      2.28233091	     -3.58481477	     95.22565760	      0.27144614	      0.95587385	      0.48161199	      7.89282585	      2.64215411	      4.19221310	      5.97194264	      0.10423006	     30.32089245	    -13.62153325	      0.00000000	      8.65144802	     -3.43070786	     22.03065374	      1.02692722	      0.01792326	     34.13504271	     -7.27109968	      0.00000000	      0.43076872	      0.48976853	     -1.46003933	      0.79998059	      0.65139215	     -1.55129179	      0.70770993	      1.19082321	     -1.55129179	      0.49232557	      1.19082321	     -1.27753441	      0.40001183	      0.99873599	     -1.18628195	      0.24614125	      0.75865145	     -1.09502950	      3.07693788	      5.54035957	     -8.12030073	      0.00000000	      0.00000000	     27.96055995	      4.38118893	     11.33678011	     31.72835406	    -13.57660270	    121.25454656	     20.64626581	     84.21605730	    -19.61540695	     -0.67444146	     12.04605999	    -17.72148819	     12.24113881	     38.57140023	     82.03129317	     -9.74201188	      0.66243873
      0.01694915	      2.35065217	     -3.88947914	     92.78865987	      0.27065303	      0.95636229	      0.48038676	      8.73946124	      2.57914187	      1.81611974	      7.56403250	      0.13201727	     32.27348740	     -8.02523081	      0.00000000	      8.38104222	     -3.59163858	     24.39968077	      0.68229780	      0.01190834	     33.02859642	    -11.56694250	      0.00000000	      0.44016839	      0.62386975	     -1.14049589	      0.81743672	      0.82974677	     -1.21177688	      0.72315265	      1.51687691	     -1.21177688	      0.50306845	      1.51687691	     -0.99793390	      0.40874037	      1.27219519	     -0.92665291	      0.25151222	      0.96637424	     -0.85537192	      3.14407879	      7.05733938	     -6.34309600	      0.00000000	      0.00000000	     28.01460107	      4.44891015	     15.85519865	     27.06593342	    -18.32756145	     98.08096241	     21.95864821	     66.05711174	    -12.34603152	     -2.29428890	     11.21401697	    -18.05402345	     11.71543358	     34.80173177	     84.82431973	     -9.87382777	      0.81877020
      0.03389831	      2.13644627	     -3.87439038	     90.82922542	      0.27070579	      0.95686645	      0.47890856	      8.97063073	      2.39064612	      1.92542100	      8.60179272	      0.15012960	     33.07582891	     -6.27162465	      0.00000000	      7.92303343	     -3.48296340	     24.00275422	      0.54634490	      0.00953552	     32.81034026	    -12.19336005	      0.00000000	      0.41550820	      0.67234234	     -0.89778736	      0.77164028	      0.89421531	     -0.95389907	      0.68263843	      1.63473316	     -0.95389907	      0.47488432	      1.63473316	     -0.78556394	      0.38584092	      1.37104050	     -0.72945223	      0.23742139	      1.04145828	     -0.67334052	      2.96793354	      7.60567100	     -4.99322398	      0.00000000	      0.00000000	     28.01375114	      4.41224660	     18.23040730	     24.05560319	    -20.49512158	     87.24054776	     21.89876129	     55.32556904	    -10.44539975	     -3.62022514	     10.76307689	    -18.62537817	     11.22208626	     31.29450247	     85.09711359	    -10.25957273	      0.82326355
      0.05084746	      1.74281187	     -3.74386332	     89.25486940	      0.27089084	      0.95704478	      0.47746922	      9.22350330	      1.65220735	     -2.23453725	      9.94038189	      0.17349239	     35.10784295	      0.90925633	      0.00000000	      7.45373308	     -3.14188525	     23.60909298	      0.46633146	      0.00813902	     32.50954816	    -13.06302511	      0.00000000	      0.38424262	      0.66713106	     -0.71681399	      0.71357696	      0.88728431	     -0.76161487	      0.63127219	      1.62206245	     -0.76161487	      0.43915089	      1.62206245	     -0.62721225	      0.35680769	      1.36041365	     -0.58241137	      0.21955623	      1.03338601	     -0.53761050	      2.74460658	      7.54671996	     -3.98670439	      0.00000000	      0.00000000	     27.99268244	      4.41517399	     19.18738283	     21.92838656	    -22.08573472	     77.99474057	     21.85962534	     59.02549025	    -11.20292101	     -4.19170594	     10.29804055	    -19.39195582	     10.45205903	     28.54517646	     83.72149072	    -10.81772851	      0.57752160
      0.06779661	      1.33049329	     -3.38962704	     88.06357375	      0.27160598	      0.95734357	      0.47561459	      8.87519947	      1.27135435	     -1.55125793	     10.42192399	      0.18189689	     35.44397715	      1.29936010	      0.00000000	      6.80800194	     -2.77110993	     22.87216429	      0.41032388	      0.00716150	     32.41707608	    -13.38693049	      0.00000000	      0.33910874	      0.62628068	     -0.60919973	      0.62975884	      0.83295330	     -0.64727472	      0.55712175	      1.52273884	     -0.64727472	      0.38756738	      1.52273884	     -0.53304977	      0.31489637	      1.27711156	     -0.49497478	      0.19376673	      0.97010877	     -0.45689980	      2.42221981	      7.08461230	     -3.38818615	      0.00000000	      0.00000000	     27.93107721	      4.50790305	     19.14158871	     21.55239450	    -23.00387804	     77.63666397	     20.71292130	     60.58683092	    -12.93963068	     -6.09608206	      9.54590118	    -20.30177536	      8.58544508	     26.69700787	     81.76566072	    -10.98910876	      0.35616633
      0.08474576	      0.88966132	     -2.91049683	     87.16341345	      0.27235122	      0.95775863	      0.47350617	      8.31908947	      0.83401287	     -0.90525293	     10.70868910	      0.18690188	     35.74632716	      1.65811441	      0.00000000	      6.07959411	     -2.33554098	     22.05264802	      0.37365801	      0.00652156	     32.38855843	    -13.63430662	      0.00000000	      0.28998249	      0.56537738	     -0.51106999	      0.53852648	      0.75195192	     -0.54301187	      0.47641223	      1.37465857	     -0.54301187	      0.33142099	      1.37465857	     -0.44718624	      0.26927774	      1.15291756	     -0.41524437	      0.16569600	      0.87576956	     -0.38330249	      2.07131593	      6.39566202	     -2.84241797	      0.00000000	      0.00000000	     27.82471901	      4.40977098	     18.33526264	     21.54463227	    -23.71683580	     79.04300336	     19.10354994	     64.60406357	    -15.20165350	     -7.71044179	      8.76611363	    -21.26927266	      6.59040012	     25.42253626	     79.08023429	    -10.94395481	      0.03634915
